<svg width="251" height="250" viewBox="0 0 251 250" version="1.1" xmlns="http://www.w3.org/2000/svg" xmlns:xlink="http://www.w3.org/1999/xlink" xmlns:figma="http://www.figma.com/figma/ns">
<title>/logo</title>
<desc>Created using Figma</desc>
<g id="Canvas" transform="translate(1151 52)" figma:type="canvas">
<g id="Favicon/logo" style="mix-blend-mode:normal;" figma:type="frame">
<g id="Ellipse" style="mix-blend-mode:normal;" figma:type="vector">
<use xlink:href="#path0_fill" transform="translate(-1150.5 -52)" fill="#F2F2F2" style="mix-blend-mode:normal;"/>
</g>
<g id="S" style="mix-blend-mode:normal;" figma:type="text">
<use xlink:href="#path1_fill" transform="translate(-1092 24)" fill="#2D9CDB" style="mix-blend-mode:normal;"/>
</g>
<g id="A" style="mix-blend-mode:normal;" figma:type="text">
<use xlink:href="#path2_fill" transform="translate(-1086 -52)" fill="#2F80ED" style="mix-blend-mode:normal;"/>
</g>
<g id="L" style="mix-blend-mode:normal;" figma:type="text">
<use xlink:href="#path3_fill" transform="translate(-1086 -66.5)" fill="#56CCF2" style="mix-blend-mode:normal;"/>
</g>
</g>
</g>
<defs>
<path id="path0_fill" d="M 250 125C 250 194.036 194.036 250 125 250C 55.9644 250 0 194.036 0 125C 0 55.9644 55.9644 0 125 0C 194.036 0 250 55.9644 250 125Z"/>
<path id="path1_fill" d="M 96.8906 85.0781C 97.3594 83.0156 97.7812 81 98.1562 79.0312C 98.5313 76.9688 98.7188 74.8594 98.7188 72.7031C 98.7188 68.4844 97.9688 65.0156 96.4688 62.2969C 94.9687 59.4844 92.9063 57.2812 90.2812 55.6875C 87.75 54 84.7969 52.875 81.4219 52.3125C 78.1406 51.6562 74.6719 51.3281 71.0156 51.3281C 68.7656 51.3281 66.1875 51.5156 63.2812 51.8906C 60.375 52.1719 57.375 52.6875 54.2812 53.4375C 51.2812 54.0938 48.2813 54.9844 45.2812 56.1094C 42.2812 57.2344 39.6094 58.6406 37.2656 60.3281C 35.0156 62.0156 33.1406 64.0312 31.6406 66.375C 30.2344 68.625 29.5312 71.2031 29.5312 74.1094C 29.5312 76.6406 30.4219 78.8437 32.2031 80.7188C 34.0781 82.5 36.4219 84.0469 39.2344 85.3594C 42.1406 86.6719 45.375 87.75 48.9375 88.5938C 52.5 89.4375 56.0156 90.1875 59.4844 90.8438C 62.9531 91.4062 66.1875 91.875 69.1875 92.25C 72.1875 92.5312 74.5781 92.8125 76.3594 93.0938C 78.6094 93.4687 81.3281 93.9375 84.5156 94.5C 87.7969 94.9688 91.1719 95.625 94.6406 96.4688C 98.1094 97.3125 101.531 98.3438 104.906 99.5625C 108.375 100.781 111.469 102.281 114.188 104.062C 116.906 105.75 119.109 107.766 120.797 110.109C 122.484 112.359 123.328 114.984 123.328 117.984C 123.328 121.172 122.438 123.984 120.656 126.422C 118.969 128.859 116.672 131.016 113.766 132.891C 110.953 134.672 107.766 136.172 104.203 137.391C 100.734 138.516 97.1719 139.453 93.5156 140.203C 89.9531 140.953 86.5312 141.469 83.25 141.75C 79.9688 142.031 77.2031 142.172 74.9531 142.172C 65.0156 142.172 55.1719 141.375 45.4219 139.781C 35.6719 138.094 26.1562 135.422 16.875 131.766C 15.9375 131.391 14.8594 130.969 13.6406 130.5C 12.4219 129.938 11.1563 129.375 9.84375 128.812C 8.53125 128.25 7.26563 127.781 6.04688 127.406C 4.82812 127.031 3.75 126.797 2.8125 126.703C 3.375 126.141 4.21875 125.344 5.34375 124.312C 6.5625 123.281 7.73438 122.156 8.85938 120.938C 10.0781 119.719 11.1563 118.594 12.0938 117.562C 13.125 116.438 13.7344 115.594 13.9219 115.031C 22.1719 120.094 31.1719 123.844 40.9219 126.281C 50.7656 128.719 60.5156 129.938 70.1719 129.938C 71.7656 129.938 74.25 129.844 77.625 129.656C 81.0938 129.375 84.5156 128.859 87.8906 128.109C 91.3594 127.359 94.3594 126.328 96.8906 125.016C 99.5156 123.609 100.828 121.781 100.828 119.531C 100.828 116.531 99.4687 114.141 96.75 112.359C 94.125 110.578 90.6094 109.125 86.2031 108C 81.7969 106.781 76.7812 105.844 71.1562 105.188C 65.5312 104.437 59.7656 103.641 53.8594 102.797C 48.0469 101.953 42.3281 100.969 36.7031 99.8438C 31.0781 98.625 26.0625 97.0312 21.6562 95.0625C 17.25 93 13.6875 90.4219 10.9688 87.3281C 8.34375 84.2344 7.03125 80.3438 7.03125 75.6562C 7.03125 70.6875 8.01562 66.2812 9.98438 62.4375C 12.0469 58.5938 14.7656 55.2188 18.1406 52.3125C 21.6094 49.4062 25.5 46.9688 29.8125 45C 34.2187 43.0312 38.7656 41.4375 43.4531 40.2188C 48.2344 39 52.9687 38.1094 57.6562 37.5469C 62.3438 36.9844 66.6562 36.7031 70.5938 36.7031C 77.1563 36.7031 83.3906 37.2188 89.2969 38.25C 95.2031 39.2812 100.312 41.1563 104.625 43.875C 109.031 46.5937 112.5 50.3906 115.031 55.2656C 117.656 60.1406 118.969 66.4219 118.969 74.1094C 118.969 75.9844 118.875 77.8125 118.688 79.5938C 118.594 81.375 118.453 83.2031 118.266 85.0781L 96.8906 85.0781Z"/>
<path id="path2_fill" d="M 96.6094 141.469C 96.7031 141.375 96.75 141.188 96.75 140.906C 96.75 140.25 96.4688 139.172 95.9062 137.672C 95.4375 136.078 94.875 134.438 94.2188 132.75C 93.6562 130.969 93.0469 129.328 92.3906 127.828C 91.7344 126.234 91.2656 125.109 90.9844 124.453C 81.0469 124.078 71.0625 123.938 61.0312 124.031C 51.0938 124.125 41.1562 124.359 31.2188 124.734C 30.9375 125.391 30.4688 126.516 29.8125 128.109C 29.1562 129.609 28.5 131.203 27.8438 132.891C 27.2812 134.578 26.7188 136.172 26.1562 137.672C 25.6875 139.172 25.4531 140.25 25.4531 140.906C 25.4531 141.188 25.5 141.375 25.5938 141.469L -0.703125 141.469C -0.140625 140.813 0.515625 139.781 1.26562 138.375C 2.10938 136.875 2.90625 135.328 3.65625 133.734C 4.5 132.047 5.29688 130.453 6.04688 128.953C 6.79687 127.359 7.35937 126.141 7.73438 125.297C 8.76562 123.234 10.4062 119.906 12.6562 115.312C 14.9062 110.719 17.3906 105.516 20.1094 99.7031C 22.9219 93.7969 25.7812 87.6563 28.6875 81.2812C 31.6875 74.8125 34.4063 68.7188 36.8438 63C 39.2813 57.2812 41.25 52.2656 42.75 47.9531C 44.3438 43.6406 45.1406 40.6875 45.1406 39.0938C 45.1406 38.9063 45.0937 38.7187 45 38.5312C 45 38.25 44.9063 38.1094 44.7188 38.1094L 77.625 38.1094C 77.4375 38.1094 77.2969 38.25 77.2031 38.5312C 77.2031 38.7187 77.2031 38.9063 77.2031 39.0938C 77.2031 40.6875 77.9531 43.6406 79.4531 47.9531C 81.0469 52.2656 83.0625 57.2812 85.5 63C 87.9375 68.7188 90.6094 74.8125 93.5156 81.2812C 96.5156 87.6563 99.375 93.7969 102.094 99.7031C 104.906 105.516 107.391 110.719 109.547 115.312C 111.797 119.906 113.438 123.234 114.469 125.297C 114.844 126.141 115.406 127.359 116.156 128.953C 116.906 130.453 117.703 132.047 118.547 133.734C 119.391 135.328 120.188 136.875 120.938 138.375C 121.781 139.781 122.484 140.813 123.047 141.469L 96.6094 141.469ZM 42.8906 111.516C 56.8594 111.516 70.875 111.234 84.9375 110.672C 81.0938 102.141 77.25 93.7031 73.4062 85.3594C 69.6563 77.0156 65.5781 68.7656 61.1719 60.6094C 56.6719 68.8594 52.5 77.25 48.6562 85.7812C 44.8125 94.3125 40.9219 102.844 36.9844 111.375L 42.8906 111.516Z"/>
<path id="path3_fill" d="M 6.60938 141.469C 7.17188 140.906 7.64062 139.125 8.01562 136.125C 8.39063 133.031 8.67188 129.328 8.85938 125.016C 9.14062 120.703 9.28125 116.062 9.28125 111.094C 9.375 106.031 9.42188 101.203 9.42188 96.6094C 9.42188 92.0156 9.375 87.9375 9.28125 84.375C 9.28125 80.8125 9.28125 78.3281 9.28125 76.9219C 9.28125 76.1719 9.28125 74.7188 9.28125 72.5625C 9.375 70.3125 9.375 67.7812 9.28125 64.9688C 9.28125 62.1562 9.1875 59.2031 9 56.1094C 8.90625 53.0156 8.67188 50.1563 8.29688 47.5312C 7.92187 44.9062 7.40625 42.7031 6.75 40.9219C 6.09375 39.1406 5.29688 38.1094 4.35938 37.8281L 35.8594 37.8281C 34.6406 37.8281 33.6094 38.9063 32.7656 41.0625C 32.0156 43.2187 31.4062 45.9375 30.9375 49.2188C 30.4688 52.5 30.0938 56.1562 29.8125 60.1875C 29.625 64.125 29.4844 67.9219 29.3906 71.5781C 29.2969 75.2344 29.25 78.5156 29.25 81.4219C 29.25 84.2344 29.25 86.1562 29.25 87.1875C 29.25 93.6562 29.1562 100.125 28.9688 106.594C 28.875 113.062 28.9219 119.531 29.1094 126C 32.2969 126.188 35.25 126.328 37.9688 126.422C 40.6875 126.422 43.3594 126.422 45.9844 126.422C 48.6094 126.422 51.2812 126.422 54 126.422C 56.8125 126.422 59.8125 126.422 63 126.422C 63.6562 126.422 64.9688 126.422 66.9375 126.422C 68.9062 126.422 71.1562 126.422 73.6875 126.422C 76.3125 126.422 79.0781 126.422 81.9844 126.422C 84.8906 126.328 87.5625 126.281 90 126.281C 92.5312 126.188 94.6875 126.094 96.4688 126C 98.25 125.906 99.375 125.766 99.8438 125.578L 101.391 141.188L 6.60938 141.469Z"/>
</defs>
</svg>
